<svg width="32" height="32" viewBox="0 0 64 64" fill="none" xmlns="http://www.w3.org/2000/svg">
  <!-- Carteira principal -->
  <rect x="8" y="16" width="48" height="32" rx="4" fill="#60A5FA" stroke="#1E40AF" stroke-width="2"/>
  
  <!-- Rosto -->
  <circle cx="20" cy="24" r="2" fill="#1E40AF"/>
  <circle cx="44" cy="24" r="2" fill="#1E40AF"/>
  <path d="M28 28 Q32 32 36 28" stroke="#1E40AF" stroke-width="2" stroke-linecap="round" fill="none"/>
  
  <!-- Diamante -->
  <path d="M32 32 L28 38 L32 44 L36 38 Z" fill="#93C5FD" stroke="#1E40AF" stroke-width="1.5"/>
  <path d="M32 32 L30 35 L32 44 L34 35 Z" fill="#DBEAFE"/>
  
  <!-- Fecho lateral -->
  <rect x="52" y="26" width="4" height="12" rx="2" fill="#60A5FA" stroke="#1E40AF" stroke-width="1"/>
  <circle cx="54" cy="32" r="3" fill="#FBBF24" stroke="#1E40AF" stroke-width="1"/>
  
  <!-- Cart達o azul com nota musical -->
  <rect x="10" y="6" width="12" height="14" rx="2" fill="#60A5FA" stroke="#1E40AF" stroke-width="1.5"/>
  <path d="M13 12 L13 15 M13 12 Q15 12 15 14 Q15 16 13 16 M15 14 L17 14" stroke="#1E40AF" stroke-width="1.5" stroke-linecap="round"/>
  <circle cx="17" cy="16" r="1" fill="#1E40AF"/>
  
  <!-- Cart達o laranja com estrela -->
  <rect x="22" y="4" width="12" height="14" rx="2" fill="#FB923C" stroke="#C2410C" stroke-width="1.5"/>
  <path d="M28 9 L28.5 11 L30.5 11 L29 12.5 L29.5 14.5 L28 13 L26.5 14.5 L27 12.5 L25.5 11 L27.5 11 Z" fill="#FBBF24" stroke="#C2410C" stroke-width="0.5"/>
  
  <!-- Cart達o verde com NFT -->
  <rect x="34" y="6" width="12" height="14" rx="2" fill="#34D399" stroke="#047857" stroke-width="1.5"/>
  <text x="37" y="14" font-family="Arial, sans-serif" font-size="6" font-weight="bold" fill="white">NFT</text>
  <line x1="36" y1="15" x2="44" y2="15" stroke="white" stroke-width="1"/>
  
  <!-- Cart達o rosa com QR -->
  <rect x="46" y="4" width="12" height="14" rx="2" fill="#F472B6" stroke="#BE185D" stroke-width="1.5"/>
  <rect x="48" y="7" width="2" height="2" fill="#1E40AF"/>
  <rect x="51" y="7" width="2" height="2" fill="white"/>
  <rect x="54" y="7" width="2" height="2" fill="#1E40AF"/>
  <rect x="48" y="10" width="2" height="2" fill="white"/>
  <rect x="51" y="10" width="2" height="2" fill="#1E40AF"/>
  <rect x="54" y="10" width="2" height="2" fill="white"/>
  <rect x="48" y="13" width="2" height="2" fill="#1E40AF"/>
  <rect x="51" y="13" width="2" height="2" fill="white"/>
  <rect x="54" y="13" width="2" height="2" fill="#1E40AF"/>
</svg>

